HIERARCHY
ROOT Root
{
	OFFSET 0.00000 0.00000 0.00000
	CHANNELS 6 Xposition Yposition Zposition Zrotation Xrotation Yrotation
	JOINT Hip
	{
		OFFSET 0 0 0	
		CHANNELS 3 Zrotation Xrotation Yrotation
		JOINT Tummy
		{
			OFFSET 0 0.04 0	
			CHANNELS 3 Zrotation Xrotation Yrotation
			JOINT ChestBottom
			{
				OFFSET 0 0.194 0	
				CHANNELS 3 Zrotation Xrotation Yrotation
				JOINT ChestTop
				{
					OFFSET 0 0.166 0	
					CHANNELS 3 Zrotation Xrotation Yrotation
					JOINT LeftCollar
					{
						OFFSET 0 0.1 0	
						CHANNELS 3 Zrotation Xrotation Yrotation
						JOINT LeftUpperArm
						{
							OFFSET 0.156 -0.02 0.03	
							CHANNELS 3 Zrotation Xrotation Yrotation
							JOINT LeftForeArm
							{
								OFFSET 0.035 -0.27 -0.01	
								CHANNELS 3 Zrotation Xrotation Yrotation
								JOINT LeftHand
								{
									OFFSET 0.01 -0.27 0.01	
									CHANNELS 3 Zrotation Xrotation Yrotation
									End Site
									{
										OFFSET 0 -0.15 0
									}
								}
							}
						}
					}
					JOINT RightCollar
					{
						OFFSET 0 0.1 0	
						CHANNELS 3 Zrotation Xrotation Yrotation
						JOINT RightUpperArm
						{
							OFFSET -0.156 -0.02 0.03	
							CHANNELS 3 Zrotation Xrotation Yrotation
							JOINT RightForeArm
							{
								OFFSET -0.035 -0.27 -0.01	
								CHANNELS 3 Zrotation Xrotation Yrotation
								JOINT RightHand
								{
									OFFSET -0.01 -0.27 0.01	
									CHANNELS 3 Zrotation Xrotation Yrotation
									End Site
									{
										OFFSET 0 -0.15 0
									}
								}
							}
						}
					}
					JOINT Neck
					{
						OFFSET 0 0.1 0	
						CHANNELS 3 Zrotation Xrotation Yrotation
						JOINT Head
						{
							OFFSET 0 0.127 0.03	
							CHANNELS 3 Zrotation Xrotation Yrotation
							End Site
							{
								OFFSET 0 0.127 0.03
							}
						}
					}
				}
			}
		}
	}
	JOINT LeftHip
	{
		OFFSET 0 0 0	
		CHANNELS 3 Zrotation Xrotation Yrotation
		JOINT LeftThigh
		{
			OFFSET 0.088 -0.06 0	
			CHANNELS 3 Zrotation Xrotation Yrotation
			JOINT LeftLowerLeg
			{
				OFFSET 0 -0.39 0.02	
				CHANNELS 3 Zrotation Xrotation Yrotation
				JOINT LeftFootTop
				{
					OFFSET 0 -0.43 -0.02	
					CHANNELS 3 Zrotation Xrotation Yrotation
					JOINT LeftFootFront
					{
						OFFSET 0 -0.07 0.085	
						CHANNELS 3 Zrotation Xrotation Yrotation
						End Site
						{
							OFFSET 0 -0.005 0.09
						}
					}
				}
				JOINT LeftHeel
				{
					OFFSET 0 -0.43 -0.02	
					CHANNELS 3 Zrotation Xrotation Yrotation
					End Site
					{
						OFFSET 0 -0.075 -0.05
					}
				}
			}
		}
	}
	JOINT RightHip
	{
		OFFSET 0 0 0	
		CHANNELS 3 Zrotation Xrotation Yrotation
		JOINT RightThigh
		{
			OFFSET -0.088 -0.06 0	
			CHANNELS 3 Zrotation Xrotation Yrotation
			JOINT RightLowerLeg
			{
				OFFSET 0 -0.39 0.02	
				CHANNELS 3 Zrotation Xrotation Yrotation
				JOINT RightFootTop
				{
					OFFSET 0 -0.43 -0.02	
					CHANNELS 3 Zrotation Xrotation Yrotation
					JOINT RightFootFront
					{
						OFFSET 0 -0.07 0.085	
						CHANNELS 3 Zrotation Xrotation Yrotation
						End Site
						{
							OFFSET 0 -0.005 0.09
						}
					}
				}
				JOINT RightHeel
				{
					OFFSET 0 -0.43 -0.02	
					CHANNELS 3 Zrotation Xrotation Yrotation
					End Site
					{
						OFFSET 0 -0.075 -0.05
					}
				}
			}
		}
	}
}
MOTION
Frames: 36
Frame Time: 0.05
0 0.955 0 -0 0 -0 -0 0 -0 -0 0 -0 6.6492 16.881 -32.209 -0 0 -0 -0 0 -0 39.006 -42.165 20.876 -127.62 -37.073 -147.15 -0 0 -0 -0 0 -0 -6.9646 -33.991 -6.4865 -89.296 -64.47 -67.09 -0 0 -0 1.7451 -25.332 2.7828 1.7451 -25.332 2.7828 -0 0 -0 -0 0 -0 -0 0 -0 -0 0 -0 -0 0 -0 -0 0 -0 -0 0 -0 -0 0 -0 -0 0 -0 -0 0 -0 -0 0 -0 -0 0 -0 
0 0.955 0 -0 0 -0 -0 0 -0 -0 0 -0 7.4006 17.376 -32.737 -0 0 -0 -0 0 -0 38.543 -42.438 19.313 -124.35 -36.381 -146.3 -0 0 -0 -0 0 -0 -6.4497 -36.903 -5.3063 -76.455 -63.414 -50.324 -0 0 -0 1.6483 -25.372 3.3203 1.6483 -25.372 3.3203 -0 0 -0 -0 0 -0 -0 0 -0 -0 0 -0 -0 0 -0 -0 0 -0 -0 0 -0 -0 0 -0 -0 0 -0 -0 0 -0 -0 0 -0 -0 0 -0 
0 0.955 0 -0 0 -0 -0 0 -0 -0 0 -0 8.126 17.911 -32.728 -0 0 -0 -0 0 -0 38.038 -42.8 16.767 -120.6 -36.947 -143.38 -0 0 -0 -0 0 -0 -6.0416 -38.771 -3.7582 -68.573 -60.52 -40.763 -0 0 -0 1.5033 -25.722 3.5585 1.5033 -25.722 3.5585 -0 0 -0 -0 0 -0 -0 0 -0 -0 0 -0 -0 0 -0 -0 0 -0 -0 0 -0 -0 0 -0 -0 0 -0 -0 0 -0 -0 0 -0 -0 0 -0 
0 0.955 0 -0 0 -0 -0 0 -0 -0 0 -0 8.6452 18.612 -32.5 -0 0 -0 -0 0 -0 37.58 -43.131 13.057 -117.96 -39.375 -141.92 -0 0 -0 -0 0 -0 -6.0769 -39.042 -2.5123 -66.98 -57.981 -40.952 -0 0 -0 1.4792 -26.422 3.704 1.4792 -26.422 3.704 -0 0 -0 -0 0 -0 -0 0 -0 -0 0 -0 -0 0 -0 -0 0 -0 -0 0 -0 -0 0 -0 -0 0 -0 -0 0 -0 -0 0 -0 -0 0 -0 
0 0.955 0 -0 0 -0 -0 0 -0 -0 0 -0 8.6602 18.816 -32.312 -0 0 -0 -0 0 -0 36.587 -42.961 11.29 -115.1 -40.849 -140.24 -0 0 -0 -0 0 -0 -6.2479 -38.064 -2.4847 -67.087 -57.283 -43.384 -0 0 -0 1.553 -26.842 3.9264 1.553 -26.842 3.9264 -0 0 -0 -0 0 -0 -0 0 -0 -0 0 -0 -0 0 -0 -0 0 -0 -0 0 -0 -0 0 -0 -0 0 -0 -0 0 -0 -0 0 -0 -0 0 -0 
0 0.955 0 -0 0 -0 -0 0 -0 -0 0 -0 8.4919 18.919 -32.194 -0 0 -0 -0 0 -0 35.971 -42.518 11.895 -111.95 -41.131 -136.76 -0 0 -0 -0 0 -0 -6.4781 -37.525 -3.727 -65.566 -57.112 -42.383 -0 0 -0 1.616 -26.934 4.1105 1.616 -26.934 4.1105 -0 0 -0 -0 0 -0 -0 0 -0 -0 0 -0 -0 0 -0 -0 0 -0 -0 0 -0 -0 0 -0 -0 0 -0 -0 0 -0 -0 0 -0 -0 0 -0 
0 0.955 0 -0 0 -0 -0 0 -0 -0 0 -0 8.238 19.335 -32.163 -0 0 -0 -0 0 -0 35.679 -42.281 11.738 -110.28 -41.609 -134.54 -0 0 -0 -0 0 -0 -6.3237 -37.295 -4.1331 -63.201 -56.181 -40.5 -0 0 -0 1.7784 -26.9 4.2111 1.7784 -26.9 4.2111 -0 0 -0 -0 0 -0 -0 0 -0 -0 0 -0 -0 0 -0 -0 0 -0 -0 0 -0 -0 0 -0 -0 0 -0 -0 0 -0 -0 0 -0 -0 0 -0 
0 0.955 0 -0 0 -0 -0 0 -0 -0 0 -0 8.0089 19.8 -32.211 -0 0 -0 -0 0 -0 35.787 -42.076 10.403 -110.53 -42.58 -135.47 -0 0 -0 -0 0 -0 -6.0811 -36.83 -3.5813 -62.586 -55.258 -41.175 -0 0 -0 2.086 -26.875 4.2903 2.086 -26.875 4.2903 -0 0 -0 -0 0 -0 -0 0 -0 -0 0 -0 -0 0 -0 -0 0 -0 -0 0 -0 -0 0 -0 -0 0 -0 -0 0 -0 -0 0 -0 -0 0 -0 
0 0.955 0 -0 0 -0 -0 0 -0 -0 0 -0 8.0715 19.967 -32.377 -0 0 -0 -0 0 -0 35.573 -41.871 10.018 -110.29 -42.635 -135.05 -0 0 -0 -0 0 -0 -6.4765 -36.505 -3.9217 -62.024 -55.506 -41.173 -0 0 -0 2.2496 -26.86 4.4098 2.2496 -26.86 4.4098 -0 0 -0 -0 0 -0 -0 0 -0 -0 0 -0 -0 0 -0 -0 0 -0 -0 0 -0 -0 0 -0 -0 0 -0 -0 0 -0 -0 0 -0 -0 0 -0 
0 0.955 0 -0 0 -0 -0 0 -0 -0 0 -0 8.4215 20.42 -32.505 -0 0 -0 -0 0 -0 35.843 -42.062 11.175 -110.11 -41.794 -133.86 -0 0 -0 -0 0 -0 -7.3629 -36.819 -4.9938 -61.247 -56.118 -40.737 -0 0 -0 2.1932 -27.053 4.4414 2.1932 -27.053 4.4414 -0 0 -0 -0 0 -0 -0 0 -0 -0 0 -0 -0 0 -0 -0 0 -0 -0 0 -0 -0 0 -0 -0 0 -0 -0 0 -0 -0 0 -0 -0 0 -0 
0 0.955 0 -0 0 -0 -0 0 -0 -0 0 -0 8.6342 20.695 -32.474 -0 0 -0 -0 0 -0 35.77 -42.169 11.278 -110.16 -41.501 -133.74 -0 0 -0 -0 0 -0 -7.9868 -36.794 -5.3563 -61.569 -56.222 -41.295 -0 0 -0 1.9707 -27.097 4.3768 1.9707 -27.097 4.3768 -0 0 -0 -0 0 -0 -0 0 -0 -0 0 -0 -0 0 -0 -0 0 -0 -0 0 -0 -0 0 -0 -0 0 -0 -0 0 -0 -0 0 -0 -0 0 -0 
0 0.955 0 -0 0 -0 -0 0 -0 -0 0 -0 8.715 20.627 -32.447 -0 0 -0 -0 0 -0 35.386 -41.969 10.91 -110.19 -41.477 -133.83 -0 0 -0 -0 0 -0 -8.1299 -36.449 -5.0082 -62.169 -55.97 -41.962 -0 0 -0 1.7112 -26.968 4.3564 1.7112 -26.968 4.3564 -0 0 -0 -0 0 -0 -0 0 -0 -0 0 -0 -0 0 -0 -0 0 -0 -0 0 -0 -0 0 -0 -0 0 -0 -0 0 -0 -0 0 -0 -0 0 -0 
0 0.955 0 -0 0 -0 -0 0 -0 -0 0 -0 8.9303 20.69 -32.508 -0 0 -0 -0 0 -0 35.331 -41.916 11.38 -110.27 -41.033 -133.96 -0 0 -0 -0 0 -0 -8.1351 -36.428 -4.9165 -62.953 -56.078 -42.683 -0 0 -0 1.5236 -26.968 4.3924 1.5236 -26.968 4.3924 -0 0 -0 -0 0 -0 -0 0 -0 -0 0 -0 -0 0 -0 -0 0 -0 -0 0 -0 -0 0 -0 -0 0 -0 -0 0 -0 -0 0 -0 -0 0 -0 
0 0.955 0 -0 0 -0 -0 0 -0 -0 0 -0 9.1109 20.694 -32.538 -0 0 -0 -0 0 -0 35.283 -41.918 11.583 -110.32 -40.852 -133.79 -0 0 -0 -0 0 -0 -8.1299 -36.326 -4.928 -64.134 -56.287 -43.814 -0 0 -0 1.4197 -26.957 4.4151 1.4197 -26.957 4.4151 -0 0 -0 -0 0 -0 -0 0 -0 -0 0 -0 -0 0 -0 -0 0 -0 -0 0 -0 -0 0 -0 -0 0 -0 -0 0 -0 -0 0 -0 -0 0 -0 
0 0.955 0 -0 0 -0 -0 0 -0 -0 0 -0 9.2003 20.507 -32.525 -0 0 -0 -0 0 -0 35.068 -41.746 11.513 -110.45 -40.706 -134.03 -0 0 -0 -0 0 -0 -8.2219 -36.066 -5.119 -65.05 -56.657 -44.738 -0 0 -0 1.3879 -26.878 4.4046 1.3879 -26.878 4.4046 -0 0 -0 -0 0 -0 -0 0 -0 -0 0 -0 -0 0 -0 -0 0 -0 -0 0 -0 -0 0 -0 -0 0 -0 -0 0 -0 -0 0 -0 -0 0 -0 
0 0.955 0 -0 0 -0 -0 0 -0 -0 0 -0 9.216 20.375 -32.471 -0 0 -0 -0 0 -0 34.938 -41.662 11.281 -110.6 -40.722 -134.32 -0 0 -0 -0 0 -0 -8.1992 -35.876 -5.2105 -65.813 -56.864 -45.453 -0 0 -0 1.4321 -26.742 4.3346 1.4321 -26.742 4.3346 -0 0 -0 -0 0 -0 -0 0 -0 -0 0 -0 -0 0 -0 -0 0 -0 -0 0 -0 -0 0 -0 -0 0 -0 -0 0 -0 -0 0 -0 -0 0 -0 
0 0.955 0 -0 0 -0 -0 0 -0 -0 0 -0 9.3347 20.428 -32.389 -0 0 -0 -0 0 -0 34.931 -41.781 11.371 -110.62 -40.644 -134.1 -0 0 -0 -0 0 -0 -8.3275 -35.952 -5.3481 -66.154 -56.952 -45.881 -0 0 -0 1.4137 -26.613 4.1897 1.4137 -26.613 4.1897 -0 0 -0 -0 0 -0 -0 0 -0 -0 0 -0 -0 0 -0 -0 0 -0 -0 0 -0 -0 0 -0 -0 0 -0 -0 0 -0 -0 0 -0 -0 0 -0 
0 0.955 0 -0 0 -0 -0 0 -0 -0 0 -0 9.2715 20.42 -32.205 -0 0 -0 -0 0 -0 34.9 -41.859 11.247 -110.66 -40.566 -134.19 -0 0 -0 -0 0 -0 -8.4337 -35.874 -5.4934 -66.333 -57.023 -46.22 -0 0 -0 1.6025 -26.385 3.9293 1.6025 -26.385 3.9293 -0 0 -0 -0 0 -0 -0 0 -0 -0 0 -0 -0 0 -0 -0 0 -0 -0 0 -0 -0 0 -0 -0 0 -0 -0 0 -0 -0 0 -0 -0 0 -0 
0 0.955 0 -0 0 -0 -0 0 -0 -0 0 -0 9.1574 20.527 -31.814 -0 0 -0 -0 0 -0 34.976 -42.301 10.934 -110.63 -40.643 -134.07 -0 0 -0 -0 0 -0 -8.5938 -35.753 -5.9093 -66.184 -57.171 -46.578 -0 0 -0 2.0022 -26.202 3.1619 2.0022 -26.202 3.1619 -0 0 -0 -0 0 -0 -0 0 -0 -0 0 -0 -0 0 -0 -0 0 -0 -0 0 -0 -0 0 -0 -0 0 -0 -0 0 -0 -0 0 -0 -0 0 -0 
0 0.955 0 -0 0 -0 -0 0 -0 -0 0 -0 8.8806 20.576 -31.329 -0 0 -0 -0 0 -0 35.167 -42.779 11.055 -110.37 -40.326 -133.39 -0 0 -0 -0 0 -0 -8.7764 -35.383 -6.3662 -65.609 -57.301 -46.999 -0 0 -0 2.4026 -26.072 1.6229 2.4026 -26.072 1.6229 -0 0 -0 -0 0 -0 -0 0 -0 -0 0 -0 -0 0 -0 -0 0 -0 -0 0 -0 -0 0 -0 -0 0 -0 -0 0 -0 -0 0 -0 -0 0 -0 
0 0.955 0 -0 0 -0 -0 0 -0 -0 0 -0 8.6443 20.36 -31.107 -0 0 -0 -0 0 -0 35.36 -43.059 11.141 -110.26 -40.252 -132.89 -0 0 -0 -0 0 -0 -8.4981 -34.882 -6.1199 -65.453 -57.213 -47.778 -0 0 -0 2.3266 -26.076 -0.51875 2.3266 -26.076 -0.51876 -0 0 -0 -0 0 -0 -0 0 -0 -0 0 -0 -0 0 -0 -0 0 -0 -0 0 -0 -0 0 -0 -0 0 -0 -0 0 -0 -0 0 -0 -0 0 -0 
0 0.955 0 -0 0 -0 -0 0 -0 -0 0 -0 8.8748 20.037 -31.434 -0 0 -0 -0 0 -0 35.642 -43.305 11.777 -110.35 -40.23 -132.88 -0 0 -0 -0 0 -0 -7.7194 -35.168 -4.9289 -66.578 -57.129 -50.086 -0 0 -0 1.6566 -26.182 -2.1746 1.6566 -26.182 -2.1746 -0 0 -0 -0 0 -0 -0 0 -0 -0 0 -0 -0 0 -0 -0 0 -0 -0 0 -0 -0 0 -0 -0 0 -0 -0 0 -0 -0 0 -0 -0 0 -0 
0 0.955 0 -0 0 -0 -0 0 -0 -0 0 -0 9.331 19.533 -31.502 -0 0 -0 -0 0 -0 34.94 -43.268 11.895 -110.53 -39.855 -133.34 -0 0 -0 -0 0 -0 -6.8813 -35.731 -4.6256 -69.828 -57.899 -54.311 -0 0 -0 0.79748 -26.045 -2.6118 0.79748 -26.045 -2.6118 -0 0 -0 -0 0 -0 -0 0 -0 -0 0 -0 -0 0 -0 -0 0 -0 -0 0 -0 -0 0 -0 -0 0 -0 -0 0 -0 -0 0 -0 -0 0 -0 
0 0.955 0 -0 0 -0 -0 0 -0 -0 0 -0 9.2788 19.494 -31.296 -0 0 -0 -0 0 -0 34.635 -43.351 11.026 -110.75 -40.215 -133.97 -0 0 -0 -0 0 -0 -5.8928 -35.696 -4.5233 -73.631 -58.179 -59.967 -0 0 -0 0.52228 -25.873 -2.3442 0.52228 -25.873 -2.3442 -0 0 -0 -0 0 -0 -0 0 -0 -0 0 -0 -0 0 -0 -0 0 -0 -0 0 -0 -0 0 -0 -0 0 -0 -0 0 -0 -0 0 -0 -0 0 -0 
0 0.955 0 -0 0 -0 -0 0 -0 -0 0 -0 8.9055 19.51 -30.962 -0 0 -0 -0 0 -0 34.854 -43.507 10.945 -110.94 -39.942 -134.47 -0 0 -0 -0 0 -0 -4.9349 -34.944 -4.3296 -75.389 -58.691 -66.27 -0 0 -0 0.48242 -25.766 -2.262 0.48242 -25.766 -2.262 -0 0 -0 -0 0 -0 -0 0 -0 -0 0 -0 -0 0 -0 -0 0 -0 -0 0 -0 -0 0 -0 -0 0 -0 -0 0 -0 -0 0 -0 -0 0 -0 
0 0.955 0 -0 0 -0 -0 0 -0 -0 0 -0 8.8264 19.464 -30.877 -0 0 -0 -0 0 -0 34.875 -43.637 11.015 -111.21 -39.647 -135.26 -0 0 -0 -0 0 -0 -4.5605 -34.085 -4.4012 -76.777 -59.744 -72.264 -0 0 -0 0.27492 -25.881 -2.4038 0.27492 -25.881 -2.4038 -0 0 -0 -0 0 -0 -0 0 -0 -0 0 -0 -0 0 -0 -0 0 -0 -0 0 -0 -0 0 -0 -0 0 -0 -0 0 -0 -0 0 -0 -0 0 -0 
0 0.955 0 -0 0 -0 -0 0 -0 -0 0 -0 8.6412 19.535 -30.826 -0 0 -0 -0 0 -0 35.132 -43.84 10.832 -111.34 -39.723 -135.44 -0 0 -0 -0 0 -0 -4.4561 -33.423 -5.1109 -77.179 -62.233 -81.344 -0 0 -0 0.089245 -26.063 -2.7976 0.089248 -26.063 -2.7976 -0 0 -0 -0 0 -0 -0 0 -0 -0 0 -0 -0 0 -0 -0 0 -0 -0 0 -0 -0 0 -0 -0 0 -0 -0 0 -0 -0 0 -0 -0 0 -0 
0 0.955 0 -0 0 -0 -0 0 -0 -0 0 -0 8.4074 19.689 -30.811 -0 0 -0 -0 0 -0 35.581 -43.974 11.242 -111.49 -39.288 -135.07 -0 0 -0 -0 0 -0 -4.4422 -32.863 -5.7763 -76.375 -66.029 -96.884 -0 0 -0 -0.066457 -26.083 -3.3583 -0.066458 -26.083 -3.3583 -0 0 -0 -0 0 -0 -0 0 -0 -0 0 -0 -0 0 -0 -0 0 -0 -0 0 -0 -0 0 -0 -0 0 -0 -0 0 -0 -0 0 -0 -0 0 -0 
0 0.955 0 -0 0 -0 -0 0 -0 -0 0 -0 8.1794 19.77 -30.901 -0 0 -0 -0 0 -0 35.94 -44.033 11.338 -111.85 -39.116 -134.64 -0 0 -0 -0 0 -0 -4.2586 -32.337 -6.0132 -77.795 -69.197 -112.84 -0 0 -0 -0.15901 -25.823 -3.8575 -0.15901 -25.823 -3.8575 -0 0 -0 -0 0 -0 -0 0 -0 -0 0 -0 -0 0 -0 -0 0 -0 -0 0 -0 -0 0 -0 -0 0 -0 -0 0 -0 -0 0 -0 -0 0 -0 
0 0.955 0 -0 0 -0 -0 0 -0 -0 0 -0 8.0838 19.862 -30.915 -0 0 -0 -0 0 -0 36.104 -44.224 11.331 -112.61 -38.908 -134.29 -0 0 -0 -0 0 -0 -4.3518 -32.023 -6.6969 -80.88 -71.905 -127.22 -0 0 -0 -0.24268 -25.48 -4.1906 -0.24267 -25.48 -4.1906 -0 0 -0 -0 0 -0 -0 0 -0 -0 0 -0 -0 0 -0 -0 0 -0 -0 0 -0 -0 0 -0 -0 0 -0 -0 0 -0 -0 0 -0 -0 0 -0 
0 0.955 0 -0 0 -0 -0 0 -0 -0 0 -0 8.1263 19.988 -31.044 -0 0 -0 -0 0 -0 36.368 -44.351 11.571 -113.7 -38.958 -134.8 -0 0 -0 -0 0 -0 -4.8153 -31.784 -7.5668 -83.414 -74.028 -137.05 -0 0 -0 -0.23254 -25.238 -4.174 -0.23253 -25.238 -4.174 -0 0 -0 -0 0 -0 -0 0 -0 -0 0 -0 -0 0 -0 -0 0 -0 -0 0 -0 -0 0 -0 -0 0 -0 -0 0 -0 -0 0 -0 -0 0 -0 
0 0.955 0 -0 0 -0 -0 0 -0 -0 0 -0 8.0312 19.858 -31.124 -0 0 -0 -0 0 -0 36.418 -44.187 11.575 -114.18 -39.371 -134.9 -0 0 -0 -0 0 -0 -5.2689 -31.21 -8.264 -86.614 -75.511 -143.7 -0 0 -0 -0.21994 -24.907 -3.96 -0.21994 -24.907 -3.96 -0 0 -0 -0 0 -0 -0 0 -0 -0 0 -0 -0 0 -0 -0 0 -0 -0 0 -0 -0 0 -0 -0 0 -0 -0 0 -0 -0 0 -0 -0 0 -0 
0 0.955 0 -0 0 -0 -0 0 -0 -0 0 -0 8.0139 19.806 -31.136 -0 0 -0 -0 0 -0 36.513 -44.135 11.916 -114.18 -39.59 -134.06 -0 0 -0 -0 0 -0 -5.4548 -30.74 -8.6675 -90.406 -76.011 -148.06 -0 0 -0 -0.23276 -24.647 -3.7689 -0.23277 -24.647 -3.7689 -0 0 -0 -0 0 -0 -0 0 -0 -0 0 -0 -0 0 -0 -0 0 -0 -0 0 -0 -0 0 -0 -0 0 -0 -0 0 -0 -0 0 -0 -0 0 -0 
0 0.955 0 -0 0 -0 -0 0 -0 -0 0 -0 8.0447 19.8 -31.185 -0 0 -0 -0 0 -0 36.62 -44.141 12.169 -114.69 -39.756 -133.95 -0 0 -0 -0 0 -0 -5.4022 -30.573 -8.8683 -93.825 -76.2 -150.88 -0 0 -0 -0.31288 -24.471 -3.7056 -0.31288 -24.471 -3.7056 -0 0 -0 -0 0 -0 -0 0 -0 -0 0 -0 -0 0 -0 -0 0 -0 -0 0 -0 -0 0 -0 -0 0 -0 -0 0 -0 -0 0 -0 -0 0 -0 
0 0.955 0 -0 0 -0 -0 0 -0 -0 0 -0 8.0346 19.759 -31.178 -0 0 -0 -0 0 -0 36.613 -44.128 12.158 -115.37 -39.744 -134.47 -0 0 -0 -0 0 -0 -5.191 -30.438 -8.7753 -96.869 -76.152 -153.18 -0 0 -0 -0.43517 -24.292 -3.7992 -0.43517 -24.292 -3.7992 -0 0 -0 -0 0 -0 -0 0 -0 -0 0 -0 -0 0 -0 -0 0 -0 -0 0 -0 -0 0 -0 -0 0 -0 -0 0 -0 -0 0 -0 -0 0 -0 
0 0.955 0 -0 0 -0 -0 0 -0 -0 0 -0 8.0204 19.721 -31.165 -0 0 -0 -0 0 -0 36.577 -44.13 11.901 -115.94 -39.886 -135.14 -0 0 -0 -0 0 -0 -5.1128 -30.42 -8.6251 -98.52 -76.042 -154.28 -0 0 -0 -0.48389 -24.124 -3.8942 -0.48389 -24.124 -3.8942 -0 0 -0 -0 0 -0 -0 0 -0 -0 0 -0 -0 0 -0 -0 0 -0 -0 0 -0 -0 0 -0 -0 0 -0 -0 0 -0 -0 0 -0 -0 0 -0 
